<svg width="514" height="261" viewBox="0 0 514 261" fill="none" xmlns="http://www.w3.org/2000/svg">
<path fill-rule="evenodd" clip-rule="evenodd" d="M5.74838 3.86373C-1.47594 11.1163 0.683074 18.1497 14.2357 31.4871C27.73 44.7715 34.4857 46.8218 41.5123 39.7677C48.4016 32.8514 46.4327 27.0482 32.4245 12.9871C18.4182 -1.07589 12.6377 -3.0525 5.74838 3.86373ZM227.538 12.9871C213.695 26.8819 212.379 30.6462 218.587 38.5677C224.929 46.6631 231.856 45.3309 244.155 33.6527C249.888 28.2104 255.763 21.4548 257.212 18.641C261.839 9.66127 255.33 0.0843739 244.601 0.0843739C241.905 0.0843739 235.762 4.72921 227.538 12.9871ZM169.886 64.7114C168.412 66.1911 167.627 73.9633 167.627 87.072C167.627 98.1248 167.17 107.624 166.613 108.185C166.056 108.745 162.487 107.611 158.686 105.665C122.066 86.9227 87.9679 138.919 114.22 173.472C124.43 186.911 146.937 191.987 160.554 183.922C166.786 180.229 167.036 180.224 171.255 183.652C176.535 187.943 183.294 188.172 187.258 184.194C187.258 173.472 187.258 78.768 187.258 65.4125C183.764 61.9072 173.109 61.4763 169.886 64.7114ZM71.6294 73.7819C63.8837 81.5579 70.291 96.4581 81.3798 96.4581C86.3905 96.4581 94.2171 88.0849 94.2171 82.7277C94.2171 71.845 79.4014 65.9794 71.6294 73.7819ZM72.0058 106.284C70.4021 107.894 69.7471 119.372 69.7471 145.902C69.7471 186.894 69.8242 187.163 81.7242 187.163C91.6403 187.163 92.3348 184.396 92.3348 144.889C92.3348 104.835 92.109 104.017 81.0409 104.017C77.314 104.017 73.2482 105.037 72.0058 106.284ZM158.767 126.723C172.474 137.547 167.885 163.394 151.524 167.516C130.446 172.828 119.35 139.633 137.424 125.336C142.002 121.714 153.359 122.453 158.767 126.723ZM12.7562 230.2C-1.06183 244.18 -3.03638 250.151 3.86607 257.081C10.8476 264.09 16.9011 262.058 30.7399 248.058C44.5579 234.078 46.5325 228.106 39.63 221.177C32.6485 214.168 26.595 216.2 12.7562 230.2ZM220.752 220.34C212.453 226.175 214.956 234.112 229.561 248.267C243.688 261.96 249.359 263.844 256.096 257.081C263.078 250.072 261.054 243.995 247.108 230.102C233.554 216.598 228.652 214.784 220.752 220.34Z" fill="white"/>
<path fill-rule="evenodd" clip-rule="evenodd" d="M440.52 66.1722L438.142 68.0576V115.23V162.402L440.571 168.319C443.472 175.38 454.101 186.561 457.912 186.561C460.934 186.561 471.885 176.094 471.885 173.206C471.885 172.063 470.708 170.052 469.271 168.737C467.832 167.422 465.453 164.35 463.983 161.909L461.308 157.472L461.009 112.886L460.709 68.3012L458.103 66.2935C454.498 63.5177 443.96 63.4447 440.52 66.1722ZM482.888 66.8329L480.446 69.379L480.448 115.891L480.449 162.402L482.815 168.149C485.537 174.757 495.092 185.053 499.509 186.138C501.939 186.735 503.016 186.108 508.235 181.051C515.192 174.311 515.568 172.336 510.889 167.089C509.074 165.054 506.921 162.544 506.105 161.513C504.864 159.945 504.538 152.219 504.117 114.505L503.613 69.373L501.171 66.8299C497.547 63.0552 486.51 63.0572 482.888 66.8329ZM365.62 104.127C358.408 106.366 353.616 109.342 348.202 114.946C329.823 133.971 332.354 165.138 353.557 180.864C360.438 185.968 366.989 188.015 376.391 188C383.462 187.988 384.848 187.634 392.194 183.96L400.246 179.933L403.528 183.247C407.792 187.554 414.703 187.967 419.199 184.183L422.026 181.803L422.33 148.437C422.66 112.109 422.477 109.608 419.271 106.684C415.802 103.52 405.559 103.888 401.386 107.325L398.218 109.935L394.51 107.913C385.669 103.096 373.907 101.554 365.62 104.127ZM211.667 106.52C210.75 107.512 210 108.756 210 109.286C210 112.439 234.569 183.003 236.235 184.634C237.839 186.205 239.606 186.561 245.803 186.561C256.472 186.561 256.624 186.361 263.857 162.649C267.123 151.937 270.147 143.174 270.576 143.174C271.274 143.174 275.302 155.037 281.544 175.473C284.437 184.947 286.513 186.561 295.797 186.561C301.677 186.561 303.109 186.216 305.013 184.343C307.337 182.055 329.596 117.832 330.611 110.484C331.283 105.622 329.066 104.55 319.126 104.921C309.212 105.292 309.267 105.217 302.069 128.382C298.951 138.416 296.08 146.965 295.69 147.38C295.299 147.796 292.128 139.365 288.644 128.645C284.994 117.413 281.427 108.214 280.225 106.935C277.464 103.993 264.896 103.663 261.497 106.442C260.074 107.604 257.224 114.711 252.755 128.232C249.107 139.269 245.917 148.096 245.666 147.851C245.415 147.604 242.522 138.92 239.237 128.551C232.723 107.981 231.994 106.23 229.587 105.326C225.687 103.86 213.366 104.681 211.667 106.52ZM389.99 127.042C400.962 135.736 401.469 154.58 390.972 163.601C377.941 174.803 360.061 164.651 360.09 146.067C360.111 132.055 368.32 123.06 380.462 123.744C385.093 124.004 386.981 124.658 389.99 127.042Z" fill="white"/>
</svg>
