<svg width="260" height="261" viewBox="0 0 260 261" fill="none" xmlns="http://www.w3.org/2000/svg">
<path fill-rule="evenodd" clip-rule="evenodd" d="M5.74838 3.86373C-1.47594 11.1163 0.683074 18.1497 14.2357 31.4871C27.73 44.7715 34.4857 46.8218 41.5123 39.7677C48.4016 32.8514 46.4327 27.0482 32.4245 12.9871C18.4182 -1.07589 12.6377 -3.0525 5.74838 3.86373ZM227.538 12.9871C213.695 26.8819 212.379 30.6462 218.587 38.5677C224.929 46.6631 231.856 45.3309 244.155 33.6527C249.888 28.2104 255.763 21.4548 257.212 18.641C261.839 9.66127 255.33 0.0843739 244.601 0.0843739C241.905 0.0843739 235.762 4.72921 227.538 12.9871ZM169.886 64.7114C168.412 66.1911 167.627 73.9633 167.627 87.072C167.627 98.1248 167.17 107.624 166.613 108.185C166.056 108.745 162.487 107.611 158.686 105.665C122.066 86.9227 87.9679 138.919 114.22 173.472C124.43 186.911 146.937 191.987 160.554 183.922C166.786 180.229 167.036 180.224 171.255 183.652C176.535 187.943 183.294 188.172 187.258 184.194C187.258 173.472 187.258 78.768 187.258 65.4125C183.764 61.9072 173.109 61.4763 169.886 64.7114ZM71.6294 73.7819C63.8837 81.5579 70.291 96.4581 81.3798 96.4581C86.3905 96.4581 94.2171 88.0849 94.2171 82.7277C94.2171 71.845 79.4014 65.9794 71.6294 73.7819ZM72.0058 106.284C70.4021 107.894 69.7471 119.372 69.7471 145.902C69.7471 186.894 69.8242 187.163 81.7242 187.163C91.6403 187.163 92.3348 184.396 92.3348 144.889C92.3348 104.835 92.109 104.017 81.0409 104.017C77.314 104.017 73.2482 105.037 72.0058 106.284ZM158.767 126.723C172.474 137.547 167.885 163.394 151.524 167.516C130.446 172.828 119.35 139.633 137.424 125.336C142.002 121.714 153.359 122.453 158.767 126.723ZM12.7562 230.2C-1.06183 244.18 -3.03638 250.151 3.86607 257.081C10.8476 264.09 16.9011 262.058 30.7399 248.058C44.5579 234.078 46.5325 228.106 39.63 221.177C32.6485 214.168 26.595 216.2 12.7562 230.2ZM220.752 220.34C212.453 226.175 214.956 234.112 229.561 248.267C243.688 261.96 249.359 263.844 256.096 257.081C263.078 250.072 261.054 243.995 247.108 230.102C233.554 216.598 228.652 214.784 220.752 220.34Z" fill="white"/>
</svg>
